<svg width="512" height="512" viewBox="0 0 512 512" fill="none" xmlns="http://www.w3.org/2000/svg">
  <rect width="512" height="512" rx="156" fill="url(#bg)"/>
  <path d="M256 304c39.765 0 72-32.235 72-72v-80c0-39.765-32.235-72-72-72s-72 32.235-72 72v80c0 39.765 32.235 72 72 72Z" fill="url(#mic)" filter="url(#soft)"/>
  <path d="M152 230c0 57.438 46.562 104 104 104s104-46.562 104-104" stroke="#C8FF5A" stroke-width="34" stroke-linecap="round"/>
  <path d="M256 350v62" stroke="#F2F7FF" stroke-width="34" stroke-linecap="round"/>
  <path d="M206 426h100" stroke="#F2F7FF" stroke-width="34" stroke-linecap="round"/>
  <path d="M218 132c8-18 22-28 42-30" stroke="white" stroke-opacity=".68" stroke-width="18" stroke-linecap="round"/>
  <defs>
    <linearGradient id="bg" x1="94" x2="430" y1="57" y2="456" gradientUnits="userSpaceOnUse">
      <stop stop-color="#2A313D"/>
      <stop offset="1" stop-color="#0D111A"/>
    </linearGradient>
    <linearGradient id="mic" x1="196" x2="323" y1="88" y2="296" gradientUnits="userSpaceOnUse">
      <stop stop-color="#66F5FF"/>
      <stop offset=".52" stop-color="#B9FF5F"/>
      <stop offset="1" stop-color="#FF9D5C"/>
    </linearGradient>
    <filter id="soft" x="112" y="20" width="288" height="356" color-interpolation-filters="sRGB" filterUnits="userSpaceOnUse">
      <feDropShadow dx="18" dy="24" stdDeviation="24" flood-color="#000" flood-opacity=".38"/>
      <feDropShadow dx="-16" dy="-18" stdDeviation="18" flood-color="#FFFFFF" flood-opacity=".12"/>
    </filter>
  </defs>
</svg>
